<?xml version="1.0" encoding="UTF-8"?><svg id="Layer_2" xmlns="http://www.w3.org/2000/svg" preserveAspectRatio="none"  viewBox="0 0 256.81 296.54"><defs><style>.cls-1{fill:#fff;}</style></defs><g id="Layer_1-2"><polygon class="cls-1" points="156.5 238.63 167.27 244.85 167.27 51.69 156.5 57.91 156.5 238.63"/><polygon class="cls-1" points="172.27 247.73 183.04 253.95 183.04 42.59 172.27 48.81 172.27 247.73"/><polygon class="cls-1" points="140.73 229.52 151.5 235.74 151.5 60.8 140.73 67.02 140.73 229.52"/><polygon class="cls-1" points="203.82 265.94 214.59 272.16 214.59 24.38 203.82 30.6 203.82 265.94"/><polygon class="cls-1" points="188.04 256.84 198.82 263.06 198.82 33.48 188.04 39.7 188.04 256.84"/><polygon class="cls-1" points="246.13 6.17 235.36 12.39 235.36 284.15 246.13 290.37 246.13 6.17"/><polygon class="cls-1" points="219.59 275.05 230.36 281.27 230.36 15.27 219.59 21.49 219.59 275.05"/><polygon class="cls-1" points="124.96 220.42 135.73 226.64 135.73 69.9 124.96 76.12 124.96 220.42"/><polygon class="cls-1" points="77.65 193.1 88.42 199.32 88.42 97.22 77.65 103.44 77.65 193.1"/><polygon class="cls-1" points="9.57 153.79 9.57 142.75 0 148.27 9.57 153.79"/><polygon class="cls-1" points="30.34 165.79 41.11 172 41.11 124.54 30.34 130.75 30.34 165.79"/><polygon class="cls-1" points="14.57 156.68 25.34 162.9 25.34 133.64 14.57 139.86 14.57 156.68"/><polygon class="cls-1" points="251.13 293.26 256.81 296.54 256.81 0 251.13 3.28 251.13 293.26"/><polygon class="cls-1" points="46.11 174.89 56.88 181.11 56.88 115.43 46.11 121.65 46.11 174.89"/><polygon class="cls-1" points="93.42 202.21 104.19 208.43 104.19 88.12 93.42 94.33 93.42 202.21"/><polygon class="cls-1" points="109.19 211.31 119.96 217.53 119.96 79.01 109.19 85.23 109.19 211.31"/><polygon class="cls-1" points="61.88 184 72.65 190.21 72.65 106.33 61.88 112.54 61.88 184"/></g></svg>