<?xml version="1.0" encoding="UTF-8"?><svg id="Layer_2" xmlns="http://www.w3.org/2000/svg" preserveAspectRatio="none"  viewBox="0 0 296.54 256.81"><defs><style>.cls-1{fill:#fff;}</style></defs><g id="Layer_1-2"><polygon class="cls-1" points="57.91 156.5 51.69 167.27 244.85 167.27 238.63 156.5 57.91 156.5"/><polygon class="cls-1" points="48.81 172.27 42.59 183.04 253.95 183.04 247.73 172.27 48.81 172.27"/><polygon class="cls-1" points="67.02 140.73 60.8 151.5 235.74 151.5 229.52 140.73 67.02 140.73"/><polygon class="cls-1" points="30.6 203.82 24.38 214.59 272.16 214.59 265.94 203.82 30.6 203.82"/><polygon class="cls-1" points="39.7 188.04 33.48 198.82 263.06 198.82 256.84 188.04 39.7 188.04"/><polygon class="cls-1" points="290.37 246.13 284.15 235.36 12.39 235.36 6.17 246.13 290.37 246.13"/><polygon class="cls-1" points="21.49 219.59 15.27 230.36 281.27 230.36 275.05 219.59 21.49 219.59"/><polygon class="cls-1" points="76.12 124.96 69.9 135.73 226.64 135.73 220.42 124.96 76.12 124.96"/><polygon class="cls-1" points="103.44 77.65 97.22 88.42 199.32 88.42 193.1 77.65 103.44 77.65"/><polygon class="cls-1" points="142.75 9.57 153.79 9.57 148.27 0 142.75 9.57"/><polygon class="cls-1" points="130.75 30.34 124.54 41.11 172 41.11 165.79 30.34 130.75 30.34"/><polygon class="cls-1" points="139.86 14.57 133.64 25.34 162.9 25.34 156.68 14.57 139.86 14.57"/><polygon class="cls-1" points="3.28 251.13 0 256.81 296.54 256.81 293.26 251.13 3.28 251.13"/><polygon class="cls-1" points="121.65 46.11 115.43 56.88 181.11 56.88 174.89 46.11 121.65 46.11"/><polygon class="cls-1" points="94.33 93.42 88.12 104.19 208.43 104.19 202.21 93.42 94.33 93.42"/><polygon class="cls-1" points="85.23 109.19 79.01 119.96 217.53 119.96 211.31 109.19 85.23 109.19"/><polygon class="cls-1" points="112.54 61.88 106.33 72.65 190.22 72.65 184 61.88 112.54 61.88"/></g></svg>