<?xml version="1.0" encoding="UTF-8"?><svg id="Layer_2" xmlns="http://www.w3.org/2000/svg" preserveAspectRatio="none" viewBox="0 0 296.54 256.81"><defs><style>.cls-1{fill:#fff;}</style></defs><g id="Layer_1-2"><polygon class="cls-1" points="238.63 100.31 244.85 89.54 51.69 89.54 57.91 100.31 238.63 100.31"/><polygon class="cls-1" points="247.73 84.54 253.95 73.77 42.59 73.77 48.81 84.54 247.73 84.54"/><polygon class="cls-1" points="229.52 116.08 235.74 105.31 60.8 105.31 67.02 116.08 229.52 116.08"/><polygon class="cls-1" points="265.94 53 272.16 42.23 24.38 42.23 30.6 53 265.94 53"/><polygon class="cls-1" points="256.84 68.77 263.06 58 33.48 58 39.7 68.77 256.84 68.77"/><polygon class="cls-1" points="6.17 10.68 12.39 21.45 284.15 21.45 290.37 10.68 6.17 10.68"/><polygon class="cls-1" points="275.05 37.23 281.27 26.45 15.27 26.45 21.49 37.23 275.05 37.23"/><polygon class="cls-1" points="220.42 131.85 226.64 121.08 69.9 121.08 76.12 131.85 220.42 131.85"/><polygon class="cls-1" points="193.1 179.16 199.32 168.39 97.22 168.39 103.44 179.16 193.1 179.16"/><polygon class="cls-1" points="153.79 247.24 142.75 247.24 148.27 256.81 153.79 247.24"/><polygon class="cls-1" points="165.79 226.47 172 215.7 124.54 215.7 130.75 226.47 165.79 226.47"/><polygon class="cls-1" points="156.68 242.24 162.9 231.47 133.64 231.47 139.86 242.24 156.68 242.24"/><polygon class="cls-1" points="293.26 5.68 296.54 0 0 0 3.28 5.68 293.26 5.68"/><polygon class="cls-1" points="174.89 210.7 181.11 199.93 115.43 199.93 121.65 210.7 174.89 210.7"/><polygon class="cls-1" points="202.21 163.39 208.43 152.62 88.12 152.62 94.33 163.39 202.21 163.39"/><polygon class="cls-1" points="211.31 147.62 217.53 136.85 79.01 136.85 85.23 147.62 211.31 147.62"/><polygon class="cls-1" points="184 194.93 190.21 184.16 106.33 184.16 112.54 194.93 184 194.93"/></g></svg>