<?xml version="1.0" encoding="UTF-8"?><svg id="Layer_2" xmlns="http://www.w3.org/2000/svg" preserveAspectRatio="none"  viewBox="0 0 256.81 296.54"><defs><style>.cls-1{fill:#fff;}</style></defs><g id="Layer_1-2"><polygon class="cls-1" points="100.31 57.91 89.54 51.69 89.54 244.85 100.31 238.63 100.31 57.91"/><polygon class="cls-1" points="84.54 48.81 73.77 42.59 73.77 253.95 84.54 247.73 84.54 48.81"/><polygon class="cls-1" points="116.08 67.02 105.31 60.8 105.31 235.74 116.08 229.52 116.08 67.02"/><polygon class="cls-1" points="53 30.6 42.23 24.38 42.23 272.16 53 265.94 53 30.6"/><polygon class="cls-1" points="68.77 39.7 58 33.48 58 263.06 68.77 256.84 68.77 39.7"/><polygon class="cls-1" points="10.68 290.37 21.45 284.15 21.45 12.39 10.68 6.17 10.68 290.37"/><polygon class="cls-1" points="37.23 21.49 26.45 15.27 26.45 281.27 37.23 275.05 37.23 21.49"/><polygon class="cls-1" points="131.85 76.12 121.08 69.9 121.08 226.64 131.85 220.42 131.85 76.12"/><polygon class="cls-1" points="179.16 103.44 168.39 97.22 168.39 199.32 179.16 193.1 179.16 103.44"/><polygon class="cls-1" points="247.24 142.75 247.24 153.79 256.81 148.27 247.24 142.75"/><polygon class="cls-1" points="226.47 130.75 215.7 124.54 215.7 172 226.47 165.79 226.47 130.75"/><polygon class="cls-1" points="242.24 139.86 231.47 133.64 231.47 162.9 242.24 156.68 242.24 139.86"/><polygon class="cls-1" points="5.68 3.28 0 0 0 296.54 5.68 293.26 5.68 3.28"/><polygon class="cls-1" points="210.7 121.65 199.93 115.43 199.93 181.11 210.7 174.89 210.7 121.65"/><polygon class="cls-1" points="163.39 94.33 152.62 88.12 152.62 208.43 163.39 202.21 163.39 94.33"/><polygon class="cls-1" points="147.62 85.23 136.85 79.01 136.85 217.53 147.62 211.31 147.62 85.23"/><polygon class="cls-1" points="194.93 112.54 184.16 106.33 184.16 190.22 194.93 184 194.93 112.54"/></g></svg>